<svg xmlns="http://www.w3.org/2000/svg" xmlns:xlink="http://www.w3.org/1999/xlink" style="vertical-align:-5.63ex" width="67.665ex" height="12.384ex" viewBox="0 -2908.2 29133.6 5332.1"><defs><path id="i" stroke-width="1" d="M319-645v1799h347v-84H403V-645h-84z"/><path id="b" stroke-width="1" d="M213 578l-13-5q-14-5-40-10t-58-7H83v46h19q47 2 87 15t56 24 28 22q2 3 12 3 9 0 17-6V361l1-300q7-7 12-9t24-4 62-2h26V0h-11q-21 3-159 3-136 0-157-3H88v46h64q16 0 25 1t16 3 8 2 6 5 6 4v517z"/><path id="c" stroke-width="1" d="M127 463q-27 0-42 17t-16 44q0 55 48 98t116 43q35 0 44-1 74-12 113-53t40-89q0-52-34-101t-94-71l-3-2q0-1 9-3t29-9 38-21q82-53 82-140 0-79-62-138T238-22q-80 0-138 43T42 130q0 28 18 45t45 18q28 0 46-18t18-45q0-11-3-20t-7-16-11-12-12-8-10-4-8-3l-4-1q51-45 124-45 55 0 83 53 17 33 17 101v20q0 95-64 127-15 6-61 7l-42 1-3 2q-2 3-2 16 0 18 8 18 28 0 58 5 34 5 62 42t28 112v8q0 57-35 79-22 14-47 14-32 0-59-11t-38-23-11-12h3q3-1 8-2t10-5 12-7 10-11 8-15 3-20q0-22-14-39t-45-18z"/><path id="a" stroke-width="1" d="M247-949v2399h269v-62H309V-887h207v-62H247z"/><path id="e" stroke-width="1" d="M11 1388v62h269V-949H11v62h207v2275H11z"/><path id="f" stroke-width="1" d="M56 250q0 144 100 238t228 95q146 0 242-98t96-235q0-140-97-236T390-83q-141 0-237 97T56 250zm526 221q-51 39-86 52-50 19-115 19-57 0-109-23t-76-48l193-193 96 97 97 96zm-415-29q-72-80-72-192 0-113 72-192l192 192-192 192zM610 58q72 80 72 192 0 113-72 192L418 250 610 58zM196 29q13-13 34-27t65-29 93-15q21 0 41 2t36 7 31 10 26 12 22 12 17 12 13 9 8 7L388 222 196 29z"/><path id="g" stroke-width="1" d="M96 585q56 81 153 81 48 0 96-26t78-92q37-83 37-228 0-155-43-237-20-42-55-67t-61-31-51-7q-26 0-52 6t-61 32-55 67q-43 82-43 237 0 174 57 265zm225 12q-30 32-71 32-42 0-72-32-25-26-33-72t-8-192q0-158 8-208t36-79q28-30 69-30 40 0 68 30 29 30 36 84t8 203q0 145-8 191t-33 73z"/><path id="h" stroke-width="1" d="M56 347q0 13 14 20h637q15-8 15-20 0-11-14-19l-318-1H72q-16 5-16 20zm0-194q0 15 16 20h636q14-10 14-20 0-13-15-20H70q-14 7-14 20z"/><path id="l" stroke-width="1" d="M78 250q0 24 17 42t43 18q24 0 42-16t19-43q0-25-17-43t-43-18-43 17-18 43z"/><path id="d" stroke-width="1" d="M109 429q-27 0-43 18t-16 44q0 71 53 123t132 52q91 0 152-56t62-145q0-43-20-82t-48-68-80-74q-36-31-100-92l-59-56 76-1q157 0 167 5 7 2 24 89v3h40v-3q-1-3-13-91T421 3V0H50v31q0 7 6 15t30 35q29 32 50 56 9 10 34 37t34 37 29 33 28 34 23 30 21 32 15 29 13 32 7 30 3 33q0 63-34 109t-97 46q-33 0-58-17t-35-33-10-19q0-1 5-1 18 0 37-14t19-46q0-25-16-42t-45-18z"/><path id="k" stroke-width="1" d="M319-644v1799h84V-560h263v-84H319z"/><path id="j" stroke-width="1" d="M319 0v602h84V0h-84z"/><path id="m" stroke-width="1" d="M0 1070v84h347V-645h-84v1715H0z"/><path id="o" stroke-width="1" d="M263-560v1715h84V-644H0v84h263z"/><path id="n" stroke-width="1" d="M263 0v602h84V0h-84z"/><path id="p" stroke-width="1" d="M42 313q0 163 81 258t180 95q69 0 99-36t30-80q0-25-14-40t-39-15q-23 0-38 14t-15 39q0 44 47 53-22 22-62 25-71 0-117-60-47-66-47-202l1-4q5 6 8 13 41 60 107 60h4q46 0 81-19 24-14 48-40t39-57q21-49 21-107v-18q0-23-5-43-11-59-64-115T253-22q-28 0-54 8t-56 30-51 59-36 97-14 141zm215 84q-30 0-52-17t-34-45-17-57-6-62q0-83 12-119t38-58q24-18 53-18 51 0 78 38 13 18 18 45t5 105q0 80-5 107t-18 45q-27 36-72 36z"/><path id="r" stroke-width="1" d="M462 0q-18 3-129 3-116 0-134-3h-9v46h58q7 0 17 2t14 5 7 8q1 2 1 54v50H28v46l151 231q153 232 155 233 2 2 21 2h18l6-6V211h92v-46h-92v-51-48q0-7 6-12 8-7 57-8h29V0h-9zM293 211v334L74 212l109-1h110z"/><path id="q" stroke-width="1" d="M352 287q-48-76-120-76-78 0-128 59T44 396q-2 16-2 40v8q0 93 69 162 60 60 132 60h6q4 0 8-1h4q12 0 25-2t37-12 47-32 43-59q43-88 43-226 0-140-60-237-35-56-84-87T208-22q-61 0-100 29T68 93t53 56q22 0 37-14t15-39q0-18-9-31t-16-16-13-5l-4-1q0-2 7-6t26-10 42-5h6q60 0 101 64 39 56 39 194v7zm-108-39q48 0 77 49t30 133q0 78-8 112-2 10-6 20t-14 26-30 27-47 10q-38 0-65-27-21-22-27-52t-7-105q0-83 5-112t20-47q25-34 72-34z"/><path id="s" stroke-width="1" d="M78 60q0 24 17 42t43 18q24 0 42-16t19-43q0-25-17-43T139 0 96 17 78 60z"/></defs><g fill="currentColor" stroke="currentColor" stroke-width="0" transform="scale(1 -1)"><use xlink:href="#a"/><g transform="translate(681)"><use y="650" xlink:href="#b"/><use y="-750" xlink:href="#c"/></g><g transform="translate(2181)"><use y="650" xlink:href="#d"/><use y="-750" xlink:href="#b"/></g><use x="2849" y="-1" xlink:href="#e"/><use x="3600" xlink:href="#f"/><g transform="translate(4601)"><use xlink:href="#a"/><g transform="translate(681)"><use y="650" xlink:href="#g"/><use y="-750" xlink:href="#d"/></g><g transform="translate(2181)"><use y="650" xlink:href="#c"/><use y="-750" xlink:href="#b"/></g><use x="2849" y="-1" xlink:href="#e"/></g><use x="8256" xlink:href="#h"/><g transform="translate(9313 2850)"><use y="-1155" xlink:href="#i"/><use transform="matrix(1 0 0 2.81126 0 -3446.189)" xlink:href="#j"/><use y="-4555" xlink:href="#k"/></g><g transform="translate(10133 2050)"><use xlink:href="#b"/><use x="722" xlink:href="#l"/><use x="1223" xlink:href="#g"/></g><g transform="translate(10133 650)"><use xlink:href="#b"/><use x="722" xlink:href="#l"/><use x="1223" xlink:href="#d"/></g><g transform="translate(10133 -750)"><use xlink:href="#c"/><use x="722" xlink:href="#l"/><use x="1223" xlink:href="#g"/></g><g transform="translate(10133 -2150)"><use xlink:href="#c"/><use x="722" xlink:href="#l"/><use x="1223" xlink:href="#d"/></g><g><g transform="translate(12857 2050)"><use xlink:href="#b"/><use x="722" xlink:href="#l"/><use x="1223" xlink:href="#c"/></g><g transform="translate(12857 650)"><use xlink:href="#b"/><use x="722" xlink:href="#l"/><use x="1223" xlink:href="#b"/></g><g transform="translate(12857 -750)"><use xlink:href="#c"/><use x="722" xlink:href="#l"/><use x="1223" xlink:href="#c"/></g><g transform="translate(12857 -2150)"><use xlink:href="#c"/><use x="722" xlink:href="#l"/><use x="1223" xlink:href="#b"/></g></g><g><g transform="translate(15580 2050)"><use xlink:href="#d"/><use x="722" xlink:href="#l"/><use x="1223" xlink:href="#g"/></g><g transform="translate(15580 650)"><use xlink:href="#d"/><use x="722" xlink:href="#l"/><use x="1223" xlink:href="#d"/></g><g transform="translate(15580 -750)"><use xlink:href="#b"/><use x="722" xlink:href="#l"/><use x="1223" xlink:href="#g"/></g><g transform="translate(15580 -2150)"><use xlink:href="#b"/><use x="722" xlink:href="#l"/><use x="1223" xlink:href="#d"/></g></g><g><g transform="translate(18304 2050)"><use xlink:href="#d"/><use x="722" xlink:href="#l"/><use x="1223" xlink:href="#c"/></g><g transform="translate(18304 650)"><use xlink:href="#d"/><use x="722" xlink:href="#l"/><use x="1223" xlink:href="#b"/></g><g transform="translate(18304 -750)"><use xlink:href="#b"/><use x="722" xlink:href="#l"/><use x="1223" xlink:href="#c"/></g><g transform="translate(18304 -2150)"><use xlink:href="#b"/><use x="722" xlink:href="#l"/><use x="1223" xlink:href="#b"/></g></g><g transform="translate(20196 2850)"><use y="-1155" xlink:href="#m"/><use transform="matrix(1 0 0 2.81126 0 -3446.189)" xlink:href="#n"/><use y="-4555" xlink:href="#o"/></g><use x="21141" xlink:href="#h"/><g><g transform="translate(22198 2850)"><use y="-1155" xlink:href="#i"/><use transform="matrix(1 0 0 2.81126 0 -3446.189)" xlink:href="#j"/><use y="-4555" xlink:href="#k"/></g><g transform="translate(23018)"><use y="2050" xlink:href="#g"/><use y="650" xlink:href="#d"/><use y="-750" xlink:href="#g"/><use y="-2150" xlink:href="#p"/></g><g transform="translate(24518)"><use y="2050" xlink:href="#c"/><use y="650" xlink:href="#b"/><use y="-750" xlink:href="#q"/><use y="-2150" xlink:href="#c"/></g><g transform="translate(26019)"><use y="2050" xlink:href="#g"/><use y="650" xlink:href="#r"/><use y="-750" xlink:href="#g"/><use y="-2150" xlink:href="#d"/></g><g transform="translate(27519)"><use y="2050" xlink:href="#p"/><use y="650" xlink:href="#d"/><use y="-750" xlink:href="#c"/><use y="-2150" xlink:href="#b"/></g><g transform="translate(28187 2850)"><use y="-1155" xlink:href="#m"/><use transform="matrix(1 0 0 2.81126 0 -3446.189)" xlink:href="#n"/><use y="-4555" xlink:href="#o"/></g></g><use x="28855" xlink:href="#s"/></g></svg>